<svg width="200" height="54" viewBox="0 0 200 54" fill="none" xmlns="http://www.w3.org/2000/svg">
<path d="M26.0653 39L16.9176 26.9261H15.3267V39H8.29545V9.90909H15.3267V21.2017H16.4489L25.4545 9.90909H34.2472L23.0398 23.6449L34.8295 39H26.0653ZM43.9737 30.0085L50.9482 17.1818H57.6243V39H51.0476V26.1307L44.0874 39H37.397V17.1818H43.9737V30.0085ZM77.429 25.3778V30.6761H66.2358V25.3778H77.429ZM68.6222 17.1818V39H62.0455V17.1818H68.6222ZM81.6193 17.1818V39H75.0852V17.1818H81.6193ZM96.0192 39.4119C93.7275 39.4119 91.7578 38.9432 90.1101 38.0057C88.4718 37.0587 87.2076 35.7424 86.3175 34.0568C85.4368 32.3617 84.9964 30.3968 84.9964 28.1619C84.9964 25.9176 85.4368 23.9527 86.3175 22.267C87.2076 20.572 88.4718 19.2557 90.1101 18.3182C91.7578 17.3712 93.7275 16.8977 96.0192 16.8977C98.3108 16.8977 100.276 17.3712 101.914 18.3182C103.562 19.2557 104.826 20.572 105.707 22.267C106.597 23.9527 107.042 25.9176 107.042 28.1619C107.042 30.3968 106.597 32.3617 105.707 34.0568C104.826 35.7424 103.562 37.0587 101.914 38.0057C100.276 38.9432 98.3108 39.4119 96.0192 39.4119ZM96.0618 34.1705C96.8951 34.1705 97.6006 33.9148 98.1783 33.4034C98.7559 32.892 99.1963 32.1818 99.4993 31.2727C99.8118 30.3636 99.968 29.3125 99.968 28.1193C99.968 26.9072 99.8118 25.8466 99.4993 24.9375C99.1963 24.0284 98.7559 23.3182 98.1783 22.8068C97.6006 22.2955 96.8951 22.0398 96.0618 22.0398C95.2 22.0398 94.4709 22.2955 93.8743 22.8068C93.2872 23.3182 92.8374 24.0284 92.5249 24.9375C92.2218 25.8466 92.0703 26.9072 92.0703 28.1193C92.0703 29.3125 92.2218 30.3636 92.5249 31.2727C92.8374 32.1818 93.2872 32.892 93.8743 33.4034C94.4709 33.9148 95.2 34.1705 96.0618 34.1705ZM123.81 31.5852L129.151 17.1818H134.237L126.04 39H121.58L113.597 17.1818H118.668L123.81 31.5852ZM117.177 17.1818V39H110.6V17.1818H117.177ZM130.842 39V17.1818H137.333V39H130.842ZM148.114 30.0085L155.089 17.1818H161.765V39H155.188V26.1307L148.228 39H141.538V17.1818H148.114V30.0085ZM166.186 39V9.90909H173.217V21.5852H184.68V9.90909H191.697V39H184.68V27.3097H173.217V39H166.186Z" fill="black"/>
<path d="M11.9424 51.1364C11.3288 51.1364 10.8004 50.9915 10.3572 50.7017C9.91403 50.4119 9.57312 50.0128 9.33448 49.5043C9.09585 48.9957 8.97653 48.4148 8.97653 47.7614C8.97653 47.0966 9.09869 46.5099 9.34301 46.0014C9.59016 45.4901 9.93391 45.0909 10.3743 44.804C10.8174 44.5142 11.3345 44.3693 11.9254 44.3693C12.3856 44.3693 12.8004 44.4545 13.1697 44.625C13.539 44.7955 13.8416 45.0341 14.0774 45.3409C14.3132 45.6477 14.4595 46.0057 14.5163 46.4148H13.5106C13.4339 46.1165 13.2635 45.8523 12.9993 45.6222C12.7379 45.3892 12.3856 45.2727 11.9424 45.2727C11.5504 45.2727 11.2066 45.375 10.9112 45.5795C10.6186 45.7812 10.3899 46.0668 10.2251 46.4361C10.0632 46.8026 9.98221 47.233 9.98221 47.7273C9.98221 48.233 10.0618 48.6733 10.2208 49.0483C10.3828 49.4233 10.6101 49.7145 10.9027 49.9219C11.1981 50.1293 11.5447 50.233 11.9424 50.233C12.2038 50.233 12.441 50.1875 12.6541 50.0966C12.8672 50.0057 13.0476 49.875 13.1953 49.7045C13.343 49.5341 13.4481 49.3295 13.5106 49.0909H14.5163C14.4595 49.4773 14.3189 49.8253 14.0944 50.1349C13.8728 50.4418 13.5788 50.6861 13.2123 50.8679C12.8487 51.0469 12.4254 51.1364 11.9424 51.1364ZM24.0108 51.1364C23.3801 51.1364 22.8361 50.9972 22.3787 50.7188C21.9241 50.4375 21.5733 50.0455 21.3261 49.5426C21.0818 49.0369 20.9597 48.4489 20.9597 47.7784C20.9597 47.108 21.0818 46.517 21.3261 46.0057C21.5733 45.4915 21.917 45.0909 22.3574 44.804C22.8006 44.5142 23.3176 44.3693 23.9085 44.3693C24.2494 44.3693 24.5861 44.4261 24.9185 44.5398C25.2508 44.6534 25.5534 44.8381 25.8261 45.0938C26.0989 45.3466 26.3162 45.6818 26.4781 46.0994C26.6401 46.517 26.721 47.0312 26.721 47.642V48.0682H21.6756V47.1989H25.6983C25.6983 46.8295 25.6244 46.5 25.4767 46.2102C25.3318 45.9205 25.1244 45.6918 24.8545 45.5241C24.5875 45.3565 24.2722 45.2727 23.9085 45.2727C23.5079 45.2727 23.1614 45.3722 22.8687 45.571C22.579 45.767 22.356 46.0227 22.1997 46.3381C22.0435 46.6534 21.9653 46.9915 21.9653 47.3523V47.9318C21.9653 48.4261 22.0506 48.8452 22.221 49.1889C22.3943 49.5298 22.6344 49.7898 22.9412 49.9688C23.248 50.1449 23.6045 50.233 24.0108 50.233C24.275 50.233 24.5136 50.196 24.7267 50.1222C24.9426 50.0455 25.1287 49.9318 25.2849 49.7812C25.4412 49.6278 25.5619 49.4375 25.6472 49.2102L26.6187 49.483C26.5165 49.8125 26.3446 50.1023 26.1031 50.3523C25.8616 50.5994 25.5633 50.7926 25.2082 50.9318C24.8531 51.0682 24.454 51.1364 24.0108 51.1364ZM32.9215 45.392V44.4545H38.2397V45.392H36.0919V51H35.0862V45.392H32.9215ZM45.8559 46.8239H47.7309C48.498 46.8239 49.0846 47.0185 49.4909 47.4077C49.8971 47.7969 50.1003 48.2898 50.1003 48.8864C50.1003 49.2784 50.0094 49.6349 49.8275 49.956C49.6457 50.2741 49.3787 50.5284 49.0264 50.7188C48.6741 50.9062 48.2423 51 47.7309 51H44.9866V44.4545H45.9923V50.0625H47.7309C48.1287 50.0625 48.4554 49.9574 48.7111 49.7472C48.9667 49.5369 49.0946 49.267 49.0946 48.9375C49.0946 48.5909 48.9667 48.3082 48.7111 48.0895C48.4554 47.8707 48.1287 47.7614 47.7309 47.7614H45.8559V46.8239ZM65.5662 51V44.4545H66.5718V47.3011H67.2366L69.5889 44.4545H70.8843L68.2423 47.608L70.9184 51H69.623L67.4753 48.2386H66.5718V51H65.5662ZM78.2972 49.517L81.4506 44.4545H82.6097V51H81.604V45.9375L78.4676 51H77.2915V44.4545H78.2972V49.517ZM94.1123 47.267V48.2045H90.4987V47.267H94.1123ZM90.7373 44.4545V51H89.7316V44.4545H90.7373ZM94.8794 44.4545V51H93.8737V44.4545H94.8794ZM104.655 51.1364C104.064 51.1364 103.546 50.9957 103.1 50.7145C102.657 50.4332 102.31 50.0398 102.06 49.5341C101.813 49.0284 101.689 48.4375 101.689 47.7614C101.689 47.0795 101.813 46.4844 102.06 45.9759C102.31 45.4673 102.657 45.0724 103.1 44.7912C103.546 44.5099 104.064 44.3693 104.655 44.3693C105.246 44.3693 105.763 44.5099 106.206 44.7912C106.652 45.0724 106.999 45.4673 107.246 45.9759C107.496 46.4844 107.621 47.0795 107.621 47.7614C107.621 48.4375 107.496 49.0284 107.246 49.5341C106.999 50.0398 106.652 50.4332 106.206 50.7145C105.763 50.9957 105.246 51.1364 104.655 51.1364ZM104.655 50.233C105.104 50.233 105.473 50.1179 105.763 49.8878C106.053 49.6577 106.267 49.3551 106.407 48.9801C106.546 48.6051 106.615 48.1989 106.615 47.7614C106.615 47.3239 106.546 46.9162 106.407 46.5384C106.267 46.1605 106.053 45.8551 105.763 45.6222C105.473 45.3892 105.104 45.2727 104.655 45.2727C104.206 45.2727 103.837 45.3892 103.547 45.6222C103.257 45.8551 103.043 46.1605 102.904 46.5384C102.764 46.9162 102.695 47.3239 102.695 47.7614C102.695 48.1989 102.764 48.6051 102.904 48.9801C103.043 49.3551 103.257 49.6577 103.547 49.8878C103.837 50.1179 104.206 50.233 104.655 50.233ZM113.581 45.392V44.4545H118.899V45.392H116.751V51H115.745V45.392H113.581ZM128.05 51.1364C127.42 51.1364 126.876 50.9972 126.418 50.7188C125.964 50.4375 125.613 50.0455 125.366 49.5426C125.121 49.0369 124.999 48.4489 124.999 47.7784C124.999 47.108 125.121 46.517 125.366 46.0057C125.613 45.4915 125.957 45.0909 126.397 44.804C126.84 44.5142 127.357 44.3693 127.948 44.3693C128.289 44.3693 128.626 44.4261 128.958 44.5398C129.29 44.6534 129.593 44.8381 129.866 45.0938C130.138 45.3466 130.356 45.6818 130.518 46.0994C130.68 46.517 130.761 47.0312 130.761 47.642V48.0682H125.715V47.1989H129.738C129.738 46.8295 129.664 46.5 129.516 46.2102C129.371 45.9205 129.164 45.6918 128.894 45.5241C128.627 45.3565 128.312 45.2727 127.948 45.2727C127.547 45.2727 127.201 45.3722 126.908 45.571C126.619 45.767 126.395 46.0227 126.239 46.3381C126.083 46.6534 126.005 46.9915 126.005 47.3523V47.9318C126.005 48.4261 126.09 48.8452 126.261 49.1889C126.434 49.5298 126.674 49.7898 126.981 49.9688C127.288 50.1449 127.644 50.233 128.05 50.233C128.315 50.233 128.553 50.196 128.766 50.1222C128.982 50.0455 129.168 49.9318 129.324 49.7812C129.481 49.6278 129.601 49.4375 129.687 49.2102L130.658 49.483C130.556 49.8125 130.384 50.1023 130.143 50.3523C129.901 50.5994 129.603 50.7926 129.248 50.9318C128.893 51.0682 128.494 51.1364 128.05 51.1364ZM139.497 51.1534C139.082 51.1534 138.705 51.0753 138.367 50.919C138.029 50.7599 137.761 50.5312 137.562 50.233C137.363 49.9318 137.264 49.5682 137.264 49.142C137.264 48.767 137.337 48.4631 137.485 48.2301C137.633 47.9943 137.83 47.8097 138.077 47.6761C138.325 47.5426 138.597 47.4432 138.896 47.3778C139.197 47.3097 139.499 47.2557 139.803 47.2159C140.201 47.1648 140.524 47.1264 140.771 47.1009C141.021 47.0724 141.202 47.0256 141.316 46.9602C141.433 46.8949 141.491 46.7812 141.491 46.6193V46.5852C141.491 46.1648 141.376 45.8381 141.146 45.6051C140.918 45.3722 140.573 45.2557 140.11 45.2557C139.63 45.2557 139.254 45.3608 138.981 45.571C138.708 45.7812 138.516 46.0057 138.406 46.2443L137.451 45.9034C137.622 45.5057 137.849 45.196 138.133 44.9744C138.42 44.75 138.732 44.5937 139.07 44.5057C139.411 44.4148 139.747 44.3693 140.076 44.3693C140.286 44.3693 140.528 44.3949 140.801 44.446C141.076 44.4943 141.342 44.5952 141.597 44.7486C141.856 44.902 142.07 45.1335 142.241 45.4432C142.411 45.7528 142.497 46.1676 142.497 46.6875V51H141.491V50.1136H141.44C141.372 50.2557 141.258 50.4077 141.099 50.5696C140.94 50.7315 140.728 50.8693 140.464 50.983C140.2 51.0966 139.877 51.1534 139.497 51.1534ZM139.65 50.25C140.048 50.25 140.383 50.1719 140.656 50.0156C140.931 49.8594 141.139 49.6577 141.278 49.4105C141.42 49.1634 141.491 48.9034 141.491 48.6307V47.7102C141.448 47.7614 141.354 47.8082 141.21 47.8509C141.068 47.8906 140.903 47.9261 140.715 47.9574C140.531 47.9858 140.35 48.0114 140.174 48.0341C140.001 48.054 139.86 48.071 139.752 48.0852C139.491 48.1193 139.247 48.1747 139.019 48.2514C138.795 48.3253 138.613 48.4375 138.474 48.5881C138.337 48.7358 138.269 48.9375 138.269 49.1932C138.269 49.5426 138.399 49.8068 138.657 49.9858C138.918 50.1619 139.249 50.25 139.65 50.25ZM148.721 45.392V44.4545H154.04V45.392H151.892V51H150.886V45.392H148.721ZM160.787 53.4545V44.4545H161.758V45.4943H161.878C161.951 45.3807 162.054 45.2358 162.184 45.0597C162.318 44.8807 162.508 44.7216 162.755 44.5824C163.005 44.4403 163.343 44.3693 163.77 44.3693C164.321 44.3693 164.807 44.5071 165.227 44.7827C165.647 45.0582 165.976 45.4489 166.211 45.9545C166.447 46.4602 166.565 47.0568 166.565 47.7443C166.565 48.4375 166.447 49.0384 166.211 49.5469C165.976 50.0526 165.649 50.4446 165.231 50.723C164.814 50.9986 164.332 51.1364 163.787 51.1364C163.366 51.1364 163.03 51.0668 162.777 50.9276C162.524 50.7855 162.329 50.625 162.193 50.446C162.057 50.2642 161.951 50.1136 161.878 49.9943H161.792V53.4545H160.787ZM161.775 47.7273C161.775 48.2216 161.848 48.6577 161.993 49.0355C162.137 49.4105 162.349 49.7045 162.628 49.9176C162.906 50.1278 163.247 50.233 163.65 50.233C164.071 50.233 164.422 50.1222 164.703 49.9006C164.987 49.6761 165.2 49.375 165.342 48.9972C165.487 48.6165 165.559 48.1932 165.559 47.7273C165.559 47.267 165.488 46.8523 165.346 46.483C165.207 46.1108 164.995 45.8168 164.711 45.6009C164.43 45.3821 164.076 45.2727 163.65 45.2727C163.241 45.2727 162.897 45.3764 162.619 45.5838C162.341 45.7884 162.13 46.0753 161.988 46.4446C161.846 46.8111 161.775 47.2386 161.775 47.7273ZM176.038 51.1364C175.447 51.1364 174.929 50.9957 174.483 50.7145C174.04 50.4332 173.693 50.0398 173.443 49.5341C173.196 49.0284 173.072 48.4375 173.072 47.7614C173.072 47.0795 173.196 46.4844 173.443 45.9759C173.693 45.4673 174.04 45.0724 174.483 44.7912C174.929 44.5099 175.447 44.3693 176.038 44.3693C176.629 44.3693 177.146 44.5099 177.589 44.7912C178.035 45.0724 178.382 45.4673 178.629 45.9759C178.879 46.4844 179.004 47.0795 179.004 47.7614C179.004 48.4375 178.879 49.0284 178.629 49.5341C178.382 50.0398 178.035 50.4332 177.589 50.7145C177.146 50.9957 176.629 51.1364 176.038 51.1364ZM176.038 50.233C176.487 50.233 176.856 50.1179 177.146 49.8878C177.436 49.6577 177.65 49.3551 177.79 48.9801C177.929 48.6051 177.998 48.1989 177.998 47.7614C177.998 47.3239 177.929 46.9162 177.79 46.5384C177.65 46.1605 177.436 45.8551 177.146 45.6222C176.856 45.3892 176.487 45.2727 176.038 45.2727C175.589 45.2727 175.22 45.3892 174.93 45.6222C174.64 45.8551 174.426 46.1605 174.287 46.5384C174.148 46.9162 174.078 47.3239 174.078 47.7614C174.078 48.1989 174.148 48.6051 174.287 48.9801C174.426 49.3551 174.64 49.6577 174.93 49.8878C175.22 50.1179 175.589 50.233 176.038 50.233ZM185.819 51V44.4545H188.495C189.2 44.4545 189.76 44.6136 190.174 44.9318C190.589 45.25 190.797 45.6705 190.797 46.1932C190.797 46.5909 190.679 46.8991 190.443 47.1179C190.207 47.3338 189.905 47.4801 189.535 47.5568C189.777 47.5909 190.011 47.6761 190.238 47.8125C190.468 47.9489 190.659 48.1364 190.809 48.375C190.96 48.6108 191.035 48.9006 191.035 49.2443C191.035 49.5795 190.95 49.8793 190.78 50.1435C190.609 50.4077 190.365 50.6165 190.047 50.7699C189.728 50.9233 189.348 51 188.905 51H185.819ZM186.774 50.0795H188.905C189.251 50.0795 189.522 49.9972 189.718 49.8324C189.914 49.6676 190.012 49.4432 190.012 49.1591C190.012 48.821 189.914 48.5554 189.718 48.3622C189.522 48.1662 189.251 48.0682 188.905 48.0682H186.774V50.0795ZM186.774 47.1989H188.495C188.765 47.1989 188.997 47.1619 189.19 47.0881C189.383 47.0114 189.531 46.9034 189.633 46.7642C189.738 46.6222 189.791 46.4545 189.791 46.2614C189.791 45.9858 189.676 45.7699 189.446 45.6136C189.216 45.4545 188.899 45.375 188.495 45.375H186.774V47.1989Z" fill="black"/>
</svg>
